{
  "source": "C:\\Users\\Peter\\Desktop\\stuff\\MIUN\\quantitative_research\\video_compression\\videos\\BVI-HD\\BVI-HD_CDVL_videos\\ORIG\\Toys_1920x1080_30fps.mp4",
  "output": "C:\\Users\\Peter\\Desktop\\stuff\\MIUN\\quantitative_research\\video_compression\\compressed_videos\\BVI-HD\\h264\\4\\Toys_1920x1080_30fps_h264.mp4",
  "codec": "h264",
  "ok": "Input #0, mov,mp4,m4a,3gp,3g2,mj2, from 'C:\\Users\\Peter\\Desktop\\stuff\\MIUN\\quantitative_research\\video_compression\\videos\\BVI-HD\\BVI-HD_CDVL_videos\\ORIG\\Toys_1920x1080_30fps.mp4':\n  Metadata:\n    major_brand     : isom\n    minor_version   : 512\n    compatible_brands: isomiso2avc1mp41\n    encoder         : Lavf54.28.101\n  Duration: 00:00:05.00, start: 0.000000, bitrate: 270887 kb/s\n  Stream #0:0[0x1](und): Video: h264 (High 4:4:4 Predictive) (avc1 / 0x31637661), yuv420p(progressive), 1920x1080, 270883 kb/s, 30 fps, 30 tbr, 30 tbn (default)\n    Metadata:\n      handler_name    : VideoHandler\n      vendor_id       : [0][0][0][0]\n[out#0/mp4 @ 000001463fb09a40] Codec AVOption b:a (set bitrate (in bits/s)) has not been used for any stream. The most likely reason is either wrong type (e.g. a video option with no video streams) or that it is a private option of some decoder which was not actually used for any stream.\nStream mapping:\n  Stream #0:0 -> #0:0 (h264 (native) -> h264 (libx264))\nPress [q] to stop, [?] for help\n[libx264 @ 0000014640102c00] using cpu capabilities: MMX2 SSE2Fast SSSE3 SSE4.2 AVX FMA3 BMI2 AVX2\n[libx264 @ 0000014640102c00] profile High, level 5.0, 4:2:0, 8-bit\n[libx264 @ 0000014640102c00] 264 - core 165 r3222 b35605a - H.264/MPEG-4 AVC codec - Copyleft 2003-2025 - http://www.videolan.org/x264.html - options: cabac=1 ref=5 deblock=1:0:0 analyse=0x3:0x113 me=hex subme=8 psy=1 psy_rd=1.00:0.00 mixed_ref=1 me_range=16 chroma_me=1 trellis=2 8x8dct=1 cqm=0 deadzone=21,11 fast_pskip=1 chroma_qp_offset=-2 threads=18 lookahead_threads=3 sliced_threads=0 nr=0 decimate=1 interlaced=0 bluray_compat=0 constrained_intra=0 bframes=3 b_pyramid=2 b_adapt=1 b_bias=0 direct=3 weightb=1 open_gop=0 weightp=2 keyint=250 keyint_min=25 scenecut=40 intra_refresh=0 rc_lookahead=50 rc=cbr mbtree=1 bitrate=4000 ratetol=1.0 qcomp=0.60 qpmin=0 qpmax=69 qpstep=4 vbv_maxrate=4000 vbv_bufsize=4000 nal_hrd=none filler=0 ip_ratio=1.40 aq=1:1.00\nOutput #0, mp4, to 'C:\\Users\\Peter\\Desktop\\stuff\\MIUN\\quantitative_research\\video_compression\\compressed_videos\\BVI-HD\\h264\\4\\Toys_1920x1080_30fps_h264.mp4':\n  Metadata:\n    major_brand     : isom\n    minor_version   : 512\n    compatible_brands: isomiso2avc1mp41\n    encoder         : Lavf62.3.100\n  Stream #0:0(und): Video: h264 (avc1 / 0x31637661), yuv420p(tv, progressive), 1920x1080, q=2-31, 4000 kb/s, 30 fps, 15360 tbn (default)\n    Metadata:\n      encoder         : Lavc62.11.100 libx264\n      handler_name    : VideoHandler\n      vendor_id       : [0][0][0][0]\n    Side data:\n      cpb: bitrate max/min/avg: 4000000/0/4000000 buffer size: 4000000 vbv_delay: N/A\nframe=    0 fps=0.0 q=0.0 size=       0KiB time=N/A bitrate=N/A speed=N/A elapsed=0:00:00.52    \nframe=    0 fps=0.0 q=0.0 size=       0KiB time=N/A bitrate=N/A speed=N/A elapsed=0:00:01.16    \nframe=    0 fps=0.0 q=0.0 size=       0KiB time=N/A bitrate=N/A speed=N/A elapsed=0:00:01.76    \nframe=   21 fps=8.8 q=34.0 size=     256KiB time=00:00:00.63 bitrate=3311.9kbits/s speed=0.266x elapsed=0:00:02.37    \nframe=   36 fps= 12 q=35.0 size=     256KiB time=00:00:01.13 bitrate=1850.8kbits/s speed=0.384x elapsed=0:00:02.95    \nframe=   56 fps= 16 q=34.0 size=     512KiB time=00:00:01.80 bitrate=2330.4kbits/s speed=0.517x elapsed=0:00:03.47    \nframe=   72 fps= 18 q=34.0 size=     768KiB time=00:00:02.33 bitrate=2696.5kbits/s speed=0.578x elapsed=0:00:04.03    \nframe=  104 fps= 23 q=34.0 size=    1280KiB time=00:00:03.40 bitrate=3084.2kbits/s speed=0.747x elapsed=0:00:04.55    \nframe=  132 fps= 26 q=33.0 size=    1536KiB time=00:00:04.33 bitrate=2903.8kbits/s speed=0.855x elapsed=0:00:05.06    \n[mp4 @ 000001463fb11440] Starting second pass: moving the moov atom to the beginning of the file\n[out#0/mp4 @ 000001463fb09a40] video:1958KiB audio:0KiB subtitle:0KiB other streams:0KiB global headers:0KiB muxing overhead: 0.133012%\nframe=  150 fps= 28 q=-1.0 Lsize=    1961KiB time=00:00:04.93 bitrate=3255.8kbits/s speed=0.92x elapsed=0:00:05.36    \n[libx264 @ 0000014640102c00] frame I:1     Avg QP:31.37  size:100483\n[libx264 @ 0000014640102c00] frame P:38    Avg QP:32.99  size: 33297\n[libx264 @ 0000014640102c00] frame B:111   Avg QP:38.17  size:  5753\n[libx264 @ 0000014640102c00] consecutive B-frames:  0.7%  1.3%  2.0% 96.0%\n[libx264 @ 0000014640102c00] mb I  I16..4: 16.4% 75.1%  8.5%\n[libx264 @ 0000014640102c00] mb P  I16..4:  2.0%  5.3%  0.4%  P16..4: 47.8% 15.8%  6.4%  0.0%  0.0%    skip:22.3%\n[libx264 @ 0000014640102c00] mb B  I16..4:  0.0%  0.1%  0.0%  B16..8: 41.0%  2.5%  0.4%  direct: 0.6%  skip:55.5%  L0:31.1% L1:65.2% BI: 3.7%\n[libx264 @ 0000014640102c00] 8x8 transform intra:69.9% inter:76.2%\n[libx264 @ 0000014640102c00] direct mvs  spatial:91.0% temporal:9.0%\n[libx264 @ 0000014640102c00] coded y,uvDC,uvAC intra: 53.6% 35.9% 6.2% inter: 7.5% 3.2% 0.0%\n[libx264 @ 0000014640102c00] i16 v,h,dc,p: 31% 20%  9% 39%\n[libx264 @ 0000014640102c00] i8 v,h,dc,ddl,ddr,vr,hd,vl,hu: 10%  7%  6%  9% 16% 12% 18% 10% 14%\n[libx264 @ 0000014640102c00] i4 v,h,dc,ddl,ddr,vr,hd,vl,hu: 10%  5%  4%  9% 17% 13% 18% 10% 15%\n[libx264 @ 0000014640102c00] i8c dc,h,v,p: 69% 17%  9%  5%\n[libx264 @ 0000014640102c00] Weighted P-Frames: Y:7.9% UV:0.0%\n[libx264 @ 0000014640102c00] ref P L0: 76.9% 11.9%  8.7%  1.3%  1.0%  0.1%\n[libx264 @ 0000014640102c00] ref B L0: 97.4%  2.1%  0.4%  0.1%\n[libx264 @ 0000014640102c00] ref B L1: 99.4%  0.6%\n[libx264 @ 0000014640102c00] kb/s:3206.92\n",
  "seconds": 5.6757917404174805,
  "probe_out": {}
}